# xmcd
#
# Track frame offsets:
#  150
#  30287
#  55180
#  73771
#  104693
#  128742
#  154798
#  185247
#  218630
#  251061
#  262566
#
# Disc length: 4022 seconds
#
# Revision: 2
# Processed by: cddbd v1.5.1PL2 Copyright (c) Steve Scherf et al.
# Submitted via: Collectorz.com_Music_Collector 6.10
#
DISCID=970fb40b
DTITLE=Dave Gashouse - The Live Adventures Of Gashouse Dave And The Hardtails
DYEAR=2000
DGENRE=Blues
TTITLE0=Strickland - Patterson - What The Blues Is All About
TTITLE1=Dave Randall Shorey - House Of Correction
TTITLE2=Ford - Crosscut Saw
TTITLE3=D. Malone - Morrison - Rockin' In The Same Old Boat
TTITLE4=Dave Randall Shorey - Do Me
TTITLE5=Davis - Scott - Texas Flood
TTITLE6=Jackson - Matthews - Breaking Up Somebody's Home
TTITLE7=Watson - Real Mother For You
TTITLE8=Dave Randall Shorey - Playing With A Broken Heart
TTITLE9=Bradshaw - Nathan - Kay - Train Kept A Rollin'
TTITLE10=Jimi Hendrix - Voodoo Child
EXTD=
EXTT0=
EXTT1=
EXTT2=
EXTT3=
EXTT4=
EXTT5=
EXTT6=
EXTT7=
EXTT8=
EXTT9=
EXTT10=
PLAYORDER=
